<svg width="51" height="37" viewBox="0 0 51 37" fill="none" xmlns="http://www.w3.org/2000/svg">
<path d="M22.1295 0.0890666C10.2595 0.0890666 0.603516 7.09644 0.603516 15.7106C0.603516 24.3248 10.2595 31.3321 22.1295 31.3321C25.7582 31.3321 29.3253 30.7073 32.3389 29.5022C32.5803 29.713 32.848 29.9072 33.1385 30.0824L39.2888 34.5457C39.8567 35.0094 40.5492 35.3841 41.3238 35.6465C42.0984 35.909 42.9388 36.0538 43.7933 36.0721C44.6478 36.0903 45.4985 35.9817 46.293 35.7527C47.0876 35.5237 47.8093 35.1793 48.4138 34.7406C49.0183 34.302 49.4929 33.7782 49.8084 33.2016C50.1239 32.625 50.2736 32.0077 50.2485 31.3875C50.2233 30.7674 50.0238 30.1575 49.6621 29.5954C49.3004 29.0333 48.7842 28.5307 48.1452 28.1186L41.9949 23.6553C41.6953 23.4378 41.3655 23.2433 41.0108 23.075C42.6714 20.888 43.717 18.3439 43.717 15.666C43.717 7.05181 34.061 0.0444336 22.191 0.0444336L22.1295 0.0890666ZM22.1295 4.55236C30.6784 4.55236 37.5052 9.50662 37.5052 15.7106C37.5052 18.6564 36.0291 21.379 33.446 23.3875C33.3845 23.4321 33.323 23.4767 33.2615 23.5214C32.971 23.6966 32.7033 23.8908 32.462 24.1016C29.7558 25.8869 26.0657 26.9135 22.068 26.9135C13.5191 26.9135 6.69229 21.9592 6.69229 15.7552C6.69229 9.55125 13.5191 4.597 22.068 4.597L22.1295 4.55236Z" fill="white"/>
</svg>
