<svg width="43" height="36" viewBox="0 0 43 36" fill="none" xmlns="http://www.w3.org/2000/svg">
<path d="M18.8147 0.825596C8.7704 0.825596 0.599609 7.63452 0.599609 16.0047C0.599609 24.3749 8.7704 31.1839 18.8147 31.1839C21.8853 31.1839 24.9038 30.5767 27.4539 29.4057C27.6582 29.6106 27.8847 29.7993 28.1305 29.9695L33.3348 34.3064C33.8154 34.757 34.4014 35.121 35.0568 35.3761C35.7123 35.6311 36.4234 35.7718 37.1465 35.7896C37.8696 35.8073 38.5894 35.7017 39.2618 35.4792C39.9341 35.2567 40.5448 34.9221 41.0563 34.4958C41.5679 34.0696 41.9694 33.5607 42.2364 33.0004C42.5034 32.4401 42.6301 31.8403 42.6088 31.2377C42.5875 30.6351 42.4187 30.0425 42.1126 29.4963C41.8066 28.9501 41.3698 28.4617 40.829 28.0613L35.6247 23.7244C35.3712 23.5131 35.0921 23.3241 34.792 23.1606C36.1972 21.0355 37.0819 18.5635 37.0819 15.9614C37.0819 7.59115 28.9111 0.782227 18.8668 0.782227L18.8147 0.825596ZM18.8147 5.16249C26.0488 5.16249 31.8255 9.97644 31.8255 16.0047C31.8255 18.8671 30.5765 21.5126 28.3907 23.4642C28.3387 23.5076 28.2866 23.5509 28.2346 23.5943C27.9887 23.7645 27.7623 23.9532 27.558 24.1581C25.2681 25.8928 22.1455 26.8903 18.7627 26.8903C11.5287 26.8903 5.75189 22.0764 5.75189 16.0481C5.75189 10.0198 11.5287 5.20586 18.7627 5.20586L18.8147 5.16249Z" fill="white"/>
</svg>
