<svg width="36" height="42" viewBox="0 0 36 42" fill="none" xmlns="http://www.w3.org/2000/svg">
<path d="M15.4358 0.0509813C7.00481 0.0509813 0.146484 8.05505 0.146484 17.8944C0.146484 27.7338 7.00481 35.7379 15.4358 35.7379C18.0131 35.7379 20.5467 35.0242 22.6872 33.6477C22.8587 33.8885 23.0488 34.1103 23.2551 34.3104L27.6235 39.4086C28.0268 39.9383 28.5187 40.3662 29.0689 40.666C29.6191 40.9658 30.216 41.1312 30.8229 41.152C31.4299 41.1729 32.0341 41.0488 32.5984 40.7872C33.1628 40.5257 33.6754 40.1323 34.1047 39.6312C34.5341 39.1301 34.8711 38.5319 35.0952 37.8733C35.3193 37.2147 35.4257 36.5095 35.4078 35.8012C35.39 35.0929 35.2482 34.3962 34.9913 33.7541C34.7344 33.112 34.3678 32.538 33.9139 32.0673L29.5456 26.9691C29.3328 26.7207 29.0985 26.4986 28.8466 26.3064C30.0261 23.8083 30.7687 20.9023 30.7687 17.8435C30.7687 8.00407 23.9104 0 15.4794 0L15.4358 0.0509813ZM15.4358 5.14911C21.5078 5.14911 26.3567 10.808 26.3567 17.8944C26.3567 21.2592 25.3082 24.3691 23.4735 26.6632C23.4299 26.7142 23.3862 26.7652 23.3425 26.8162C23.1362 27.0163 22.9461 27.2381 22.7746 27.4789C20.8525 29.5182 18.2315 30.6908 15.3921 30.6908C9.32004 30.6908 4.47116 25.0318 4.47116 17.9454C4.47116 10.859 9.32004 5.20009 15.3921 5.20009L15.4358 5.14911Z" fill="white"/>
</svg>
