<svg width="47" height="37" viewBox="0 0 47 37" fill="none" xmlns="http://www.w3.org/2000/svg">
<path d="M20.0057 0.451982C9.02731 0.451982 0.0966797 7.45936 0.0966797 16.0735C0.0966797 24.6877 9.02731 31.6951 20.0057 31.6951C23.3618 31.6951 26.661 31.0702 29.4483 29.8651C29.6716 30.0759 29.9191 30.2701 30.1878 30.4453L35.8761 34.9086C36.4013 35.3724 37.0418 35.747 37.7583 36.0095C38.4747 36.2719 39.2519 36.4168 40.0423 36.435C40.8326 36.4533 41.6194 36.3446 42.3542 36.1156C43.0891 35.8867 43.7566 35.5423 44.3157 35.1036C44.8748 34.6649 45.3137 34.1411 45.6055 33.5645C45.8973 32.9879 46.0358 32.3706 46.0125 31.7505C45.9893 31.1303 45.8047 30.5205 45.4702 29.9583C45.1357 29.3962 44.6583 28.8936 44.0672 28.4815L38.3789 24.0182C38.1018 23.8007 37.7969 23.6062 37.4688 23.438C39.0047 21.2509 39.9717 18.7069 39.9717 16.0289C39.9717 7.41472 31.041 0.407349 20.0626 0.407349L20.0057 0.451982ZM20.0057 4.91528C27.9125 4.91528 34.2265 9.86954 34.2265 16.0735C34.2265 19.0193 32.8613 21.7419 30.4722 23.7504C30.4153 23.795 30.3584 23.8397 30.3016 23.8843C30.0329 24.0595 29.7853 24.2537 29.5621 24.4645C27.0592 26.2498 23.6462 27.2764 19.9488 27.2764C12.0421 27.2764 5.7281 22.3221 5.7281 16.1182C5.7281 9.91417 12.0421 4.95991 19.9488 4.95991L20.0057 4.91528Z" fill="white"/>
</svg>
