<svg width="37" height="38" viewBox="0 0 37 38" fill="none" xmlns="http://www.w3.org/2000/svg">
<path d="M15.8392 0.0470738C7.10503 0.0470738 0 7.43766 0 16.5229C0 25.6082 7.10503 32.9988 15.8392 32.9988C18.5093 32.9988 21.1341 32.3397 23.3516 31.0687C23.5292 31.2911 23.7261 31.4959 23.9399 31.6807L28.4654 36.3881C28.8833 36.8772 29.3928 37.2723 29.9628 37.5491C30.5328 37.8259 31.1511 37.9787 31.7799 37.9979C32.4087 38.0172 33.0346 37.9025 33.6193 37.6611C34.2039 37.4196 34.7349 37.0563 35.1798 36.5937C35.6246 36.131 35.9738 35.5786 36.2059 34.9705C36.4381 34.3623 36.5483 33.7112 36.5297 33.0572C36.5112 32.4031 36.3644 31.7599 36.0983 31.167C35.8321 30.5741 35.4523 30.0441 34.9821 29.6094L30.4566 24.9021C30.2362 24.6727 29.9935 24.4676 29.7325 24.2901C30.9544 21.9835 31.7237 19.3003 31.7237 16.4758C31.7237 7.39059 24.6187 0 15.8845 0L15.8392 0.0470738ZM15.8392 4.75446C22.1297 4.75446 27.153 9.97965 27.153 16.5229C27.153 19.6298 26.0669 22.5013 24.1662 24.6196C24.1209 24.6667 24.0756 24.7138 24.0304 24.7608C23.8166 24.9456 23.6197 25.1504 23.4421 25.3728C21.4509 27.2557 18.7356 28.3384 15.794 28.3384C9.50355 28.3384 4.48024 23.1132 4.48024 16.57C4.48024 10.0267 9.50355 4.80153 15.794 4.80153L15.8392 4.75446Z" fill="white"/>
</svg>
